# xmcd
#
# Track frame offsets:
#	150
#	14300
#	26237
#	39087
#	51095
#	63062
#	75387
#	89447
#	112479
#	124227
#	137827
#	150332
#	160475
#	171725
#	185650
#	198292
#	211262
#	223652
#	238320
#	249377
#	259107
#	269410
#	283685
#	303945
#
# Disc length: 4294 seconds
#
# Revision: 7
# Processed by: cddbd v1.5.2PL0 Copyright (c) Steve Scherf et al.
# Submitted via: EasyCDDAExtractor 15.0.0.1
#
DISCID=6110c418
DTITLE=Various Artist - Woke Up This Mornin' Vol 1
DYEAR=1993
DGENRE=Blues
TTITLE0=Howlin' Wolf - Smokestack Lightnin'
TTITLE1=Little Walter - My Babe
TTITLE2=Tommy Tucker - High Heeled Sneakers
TTITLE3=Louis Jordan - Slow Down
TTITLE4=Little Milton - We're Gonna Make It
TTITLE5=Lohn Lee Hooker - I'm In The Mood
TTITLE6=Sonny Boy Williamson - Help Me
TTITLE7=B.B. King - The Thrill Is Gone
TTITLE8=Etta James - I'd Rather Go Blind
TTITLE9=Koko Taylor - Wang Dang Doodle
TTITLE10=Muddy Waters - I'm You Hoochie Coochie Man
TTITLE11=Chuck Berry - Down The Road Apiece
TTITLE12=Bo Diddley - Bo Diddley
TTITLE13=Willie Dixon - Walkin' The Blues
TTITLE14=Jimmy Rogers - Walking By Myself
TTITLE15=Jimmy Witherspoon - When The Lights Go Out
TTITLE16=Elmore James - The Sun Is Shining
TTITLE17=Bobby Bland - Stormy Monday Blues
TTITLE18=Howlin' Wolf - Little Red Rooster
TTITLE19=Chuck Berry - Confessin' The Blues
TTITLE20=Buddy Guy - First Time I Met The Blues
TTITLE21=Lowell Fulson - Reconsider Baby
TTITLE22=John Lee Hooker - This Land Is Nobody's Land
TTITLE23=B.B. King - Many Miles Travelled
EXTD=
EXTT0=
EXTT1=
EXTT2=
EXTT3=
EXTT4=
EXTT5=
EXTT6=
EXTT7=
EXTT8=
EXTT9=
EXTT10=
EXTT11=
EXTT12=
EXTT13=
EXTT14=
EXTT15=
EXTT16=
EXTT17=
EXTT18=
EXTT19=
EXTT20=
EXTT21=
EXTT22=
EXTT23=
PLAYORDER=
